<?xml version="1.0"?>
                                <svg xmlns="http://www.w3.org/2000/svg" viewBox="-3 0 512 512.00097" height="64px" width="64px">
                                    <path d="m505.191406 109.710938c-.003906-.113282-.007812-.230469-.015625-.347657-.027343-.417969-.074219-.832031-.15625-1.234375 0-.015625-.003906-.03125-.007812-.042968-.085938-.441407-.210938-.867188-.351563-1.289063-.027344-.078125-.058594-.15625-.085937-.234375-.148438-.390625-.3125-.773438-.503907-1.140625-.011718-.027344-.023437-.054687-.039062-.085937-.207031-.386719-.445312-.753907-.699219-1.109376-.058593-.082031-.121093-.164062-.183593-.242187-.265626-.351563-.546876-.6875-.855469-.996094-.007813-.007812-.007813-.011719-.011719-.015625l-100.042969-100.042968c-.003906-.003907-.011719-.007813-.015625-.011719-.308594-.308594-.644531-.589844-.992187-.855469-.082031-.0625-.164063-.125-.25-.183594-.355469-.253906-.722657-.492187-1.105469-.699218-.03125-.015626-.0625-.027344-.09375-.042969-.363281-.1875-.746094-.351563-1.132812-.5-.078126-.027344-.160157-.058594-.238282-.085938-.417968-.144531-.847656-.265625-1.285156-.355469-.015625 0-.027344-.003906-.042969-.003906-.402343-.078125-.816406-.1249998-1.238281-.1562498-.113281-.0078124-.230469-.0117187-.34375-.015625-.113281-.0078124-.222656-.0195312-.335938-.0195312h-280.113281c-5.527343 0-10.007812 4.480469-10.007812 10.003906v51.125h-74.300781c-16.949219 0-30.742188 13.789063-30.742188 30.742188v118.589844c0 16.953124 13.792969 30.742187 30.742188 30.742187h74.300781v260.792969c0 5.523437 4.480469 10.003906 10.003906 10.003906h380.15625c5.527344 0 10.003906-4.480469 10.003906-10.003906v-391.949219c.003907-.113281-.011719-.222656-.015625-.335937zm-100.023437-75.554688 65.882812 65.886719h-65.882812zm-280.113281 457.835938v-250.789063h63.507812c5.527344 0 10.003906-4.480469 10.003906-10.003906 0-5.523438-4.476562-10.003907-10.003906-10.003907h-72.144531c-.449219-.0625-.902344-.105468-1.371094-.105468-.464844 0-.917969.042968-1.367187.105468h-82.9375c-5.917969 0-10.734376-4.816406-10.734376-10.734374v-118.589844c0-5.917969 4.816407-10.734375 10.734376-10.734375h277.65625c5.917968 0 10.734374 4.816406 10.734374 10.734375v118.589844c0 5.921874-4.816406 10.734374-10.734374 10.734374h-39.800782c-5.523437 0-10.003906 4.480469-10.003906 10.003907 0 5.523437 4.480469 10.003906 10.003906 10.003906h39.800782c16.949218 0 30.742187-13.789063 30.742187-30.742187v-118.589844c0-16.949219-13.789063-30.742188-30.742187-30.742188h-183.34375v-41.121094h260.105468v90.039063c0 5.523437 4.480469 10.003906 10.003906 10.003906h90.039063v371.941407zm0 0" style="fill: rgb(255, 255, 255);"></path><path d="m230.207031 240.574219c.628907-.128907 1.261719-.320313 1.867188-.570313.601562-.25 1.183593-.558594 1.722656-.921875.550781-.359375 1.0625-.777343 1.523437-1.238281 1.859376-1.871094 2.929688-4.441406 2.929688-7.082031 0-.652344-.058594-1.3125-.1875-1.953125-.132812-.640625-.320312-1.269532-.570312-1.867188-.25-.601562-.5625-1.183594-.921876-1.734375-.371093-.539062-.789062-1.058593-1.25-1.519531-.460937-.460938-.972656-.878906-1.519531-1.238281-.542969-.363281-1.121093-.671875-1.722656-.921875-.609375-.25-1.242187-.441406-1.871094-.570313-3.253906-.660156-6.714843.410157-9.035156 2.730469-.457031.460938-.878906.980469-1.238281 1.519531-.359375.550781-.671875 1.132813-.921875 1.734375-.25.597656-.4375 1.226563-.570313 1.867188-.128906.640625-.199218 1.300781-.199218 1.953125 0 .660156.070312 1.308593.199218 1.960937.132813.640625.320313 1.269532.570313 1.867188.25.601562.5625 1.183594.921875 1.734375.359375.539062.78125 1.058593 1.238281 1.519531.460937.460938.972656.878906 1.523437 1.238281.539063.363281 1.121094.671875 1.730469.921875.597657.25 1.230469.441406 1.871094.570313.640625.128906 1.300781.1875 1.949219.1875.648437 0 1.308594-.058594 1.960937-.1875zm0 0" style="fill: rgb(255, 255, 255);"></path><path d="m225.09375 311.128906c0 5.527344 4.480469 10.003906 10.003906 10.003906h200.082032c5.527343 0 10.003906-4.476562 10.003906-10.003906 0-5.523437-4.476563-10.003906-10.003906-10.003906h-200.082032c-5.523437 0-10.003906 4.480469-10.003906 10.003906zm0 0" style="fill: rgb(255, 255, 255);"></path><path d="m198.777344 361.257812c2.5625 0 5.121094-.980468 7.074218-2.933593 3.90625-3.90625 3.90625-10.238281 0-14.148438l-22.632812-22.632812 23.242188-23.242188c3.90625-3.90625 3.90625-10.242187 0-14.148437s-10.238282-3.90625-14.148438 0l-30.316406 30.316406c-3.90625 3.90625-3.90625 10.242188 0 14.148438l29.707031 29.707031c1.957031 1.957031 4.515625 2.933593 7.074219 2.933593zm0 0" style="fill: rgb(255, 255, 255);"></path><path d="m416.851562 384.195312c-3.90625-3.90625-10.238281-3.90625-14.148437 0-3.90625 3.90625-3.90625 10.242188 0 14.148438l22.632813 22.632812-23.242188 23.242188c-3.90625 3.90625-3.90625 10.242188 0 14.148438 1.957031 1.953124 4.515625 2.929687 7.074219 2.929687 2.5625 0 5.121093-.976563 7.074219-2.929687l30.316406-30.316407c3.910156-3.90625 3.910156-10.242187 0-14.148437zm0 0" style="fill: rgb(255, 255, 255);"></path><path d="m375.15625 341.144531h-140.058594c-5.523437 0-10.003906 4.476563-10.003906 10.003907 0 5.523437 4.480469 10.003906 10.003906 10.003906h140.058594c5.523438 0 10.003906-4.480469 10.003906-10.003906 0-5.527344-4.480468-10.003907-10.003906-10.003907zm0 0" style="fill: rgb(255, 255, 255);"></path><path d="m375.15625 381.160156h-140.058594c-5.523437 0-10.003906 4.480469-10.003906 10.003906 0 5.523438 4.480469 10.003907 10.003906 10.003907h140.058594c5.523438 0 10.003906-4.480469 10.003906-10.003907 0-5.523437-4.480468-10.003906-10.003906-10.003906zm0 0" style="fill: rgb(255, 255, 255);"></path><path d="m375.15625 421.070312h-200.082031c-5.523438 0-10.003907 4.480469-10.003907 10.003907 0 5.523437 4.480469 10.003906 10.003907 10.003906h200.082031c5.523438 0 10.003906-4.480469 10.003906-10.003906 0-5.523438-4.480468-10.003907-10.003906-10.003907zm0 0" style="fill: rgb(255, 255, 255);"></path><path d="m199.082031 135.289062 2.914063 2.929688c1.875 1.882812 4.421875 2.941406 7.078125 2.945312h.011719c2.652343 0 5.199218-1.054687 7.074218-2.929687l2.929688-2.929687v55.773437c0 5.527344 4.480468 10.003906 10.007812 10.003906 5.523438 0 10.003906-4.476562 10.003906-10.003906v-79.925781c0-4.046875-2.441406-7.695313-6.175781-9.242188-3.738281-1.546875-8.042969-.695312-10.902343 2.167969l-12.917969 12.914063-12.933594-13c-2.859375-2.875-7.164063-3.738282-10.90625-2.191407-3.746094 1.542969-6.191406 5.195313-6.191406 9.246094v80.03125c0 5.527344 4.480469 10.003906 10.003906 10.003906 5.527344 0 10.003906-4.476562 10.003906-10.003906zm0 0" style="fill: rgb(255, 255, 255);"></path><path d="m89.039062 101.042969c-5.523437 0-10.003906 4.480469-10.003906 10.003906v30.011719h-20.007812v-30.011719c0-5.523437-4.480469-10.003906-10.003906-10.003906-5.527344 0-10.007813 4.480469-10.007813 10.003906v80.035156c0 5.523438 4.480469 10.003907 10.007813 10.003907 5.523437 0 10.003906-4.480469 10.003906-10.003907v-30.011719h20.007812v30.011719c0 5.523438 4.480469 10.003907 10.003906 10.003907 5.523438 0 10.003907-4.480469 10.003907-10.003907v-80.035156c0-5.523437-4.480469-10.003906-10.003907-10.003906zm0 0" style="fill: rgb(255, 255, 255);"></path><path d="m159.066406 101.042969h-40.015625c-5.523437 0-10.003906 4.480469-10.003906 10.003906s4.480469 10.003906 10.003906 10.003906h10.003907v70.03125c0 5.523438 4.480468 10.003907 10.003906 10.003907 5.523437 0 10.003906-4.480469 10.003906-10.003907v-70.03125h10.003906c5.523438 0 10.003906-4.480469 10.003906-10.003906s-4.480468-10.003906-10.003906-10.003906zm0 0" style="fill: rgb(255, 255, 255);"></path><path d="m269.113281 201.191406h20.007813c5.523437 0 10.003906-4.480468 10.003906-10.003906 0-5.527344-4.480469-10.003906-10.003906-10.003906h-10.003906v-70.03125c0-5.523438-4.480469-10.003906-10.003907-10.003906-5.523437 0-10.003906 4.480468-10.003906 10.003906v80.035156c0 5.523438 4.476563 10.003906 10.003906 10.003906zm0 0" style="fill: rgb(255, 255, 255);"></path></svg>
