<?xml version="1.0"?>
                                    <svg xmlns="http://www.w3.org/2000/svg" xmlns:xlink="http://www.w3.org/1999/xlink" version="1.1" id="Capa_1" x="0px" y="0px" viewBox="0 0 512 512" style="enable-background:new 0 0 512 512;" xml:space="preserve" height="64px" width="64px" color="#fff">
                                    <g>
                                        <g>
                                            <g>
                                                <path d="M469.333,0H42.667C19.114,0.028,0.028,19.114,0,42.667v307.2c0.028,23.553,19.114,42.639,42.667,42.667h104.928     l101.985,116.554C251.2,510.938,253.54,512,256,512s4.8-1.062,6.421-2.912l101.985-116.554h104.928     c23.553-0.028,42.639-19.114,42.667-42.667v-307.2C511.972,19.114,492.886,0.028,469.333,0z M494.933,349.867     c-0.015,14.132-11.468,25.585-25.6,25.6h-89.994l2.548-2.912c2.008-2.294,2.64-5.485,1.657-8.371s-3.43-5.029-6.421-5.621     c-2.991-0.592-6.07,0.456-8.078,2.75L256,490.508L142.954,361.313c-2.008-2.294-5.088-3.342-8.078-2.75     c-2.991,0.592-5.438,2.735-6.421,5.621s-0.351,6.077,1.657,8.371l2.548,2.912H42.667c-14.132-0.015-25.585-11.468-25.6-25.6     v-307.2c0.015-14.132,11.468-25.585,25.6-25.6h426.667c14.132,0.015,25.585,11.468,25.6,25.6V349.867z" style="fill: rgb(255, 255, 255);"></path>
                                                <path d="M328.804,165.837l-0.225-0.212c-22.79-19.944-35.962-48.683-36.192-78.967c0-1.354-0.004-2.638,0.067-4.008     c0.388-9.767,2.187-19.427,5.342-28.679c1.125-3.278,0.157-6.91-2.451-9.193c-2.608-2.282-6.337-2.761-9.436-1.211     c-21.178,10.465-39.308,26.203-52.646,45.7c-13.209,19.445-20.461,42.321-20.867,65.825c-0.066,0.599-0.095,1.202-0.088,1.804     c0.002,8.471,0.916,16.917,2.724,25.192c-2.608-5.979-4.232-12.34-4.807-18.838c-0.243-2.871-1.919-5.426-4.456-6.792     c-2.537-1.366-5.592-1.36-8.123,0.017c-23.221,12.246-41.046,32.707-49.994,57.387l-0.023,0.038l-0.028,0.089l-0.01,0.024     l-0.002,0.012c-3.672,10.191-5.538,20.943-5.515,31.775c0,57.383,51.109,104.066,113.925,104.066     c5.427,0.017,10.85-0.336,16.229-1.058l0.03-0.01c40.491-4.356,75.39-30.43,91.049-68.023     c4.391-11.137,6.636-23.004,6.617-34.975c0.008-15.815-3.879-31.389-11.317-45.346     C350.707,187.31,340.629,175.604,328.804,165.837z M347.421,274.542c-13.409,31.826-43.101,53.811-77.454,57.35l-0.034,0.012     l-0.053-0.003c-4.6,0.617-9.238,0.918-13.879,0.9c-53.408,0-96.858-39.029-96.858-87c-0.025-8.887,1.508-17.709,4.529-26.067     l0.008-0.06l0.029-0.053c6.04-16.858,17.152-31.432,31.808-41.721c5.074,18.444,16.325,34.587,31.872,45.732l0.024,0.027     l0.047,0.03l0.036,0.028l0.034,0.016c3.605,2.675,7.408,5.074,11.374,7.176c3.506,1.857,7.829,1.052,10.432-1.941     s2.801-7.386,0.476-10.601c-1.458-2.017-2.779-4.037-4.104-6.054l-0.039-0.06l-0.003-0.006     c-10.472-16.348-16.152-35.304-16.396-54.717c0.117-0.552,0.179-1.115,0.183-1.679c0.261-20.364,6.506-40.201,17.958-57.042     c7.887-11.596,17.783-21.689,29.221-29.804c-0.637,4.256-1.046,8.542-1.225,12.842c-0.083,1.575-0.087,3.15-0.087,4.813     c0.202,35.05,15.366,68.344,41.675,91.504l0.192,0.175v0.004c10.403,8.492,19.307,18.669,26.342,30.108     c6.128,11.496,9.332,24.323,9.329,37.35C352.875,255.638,351.03,265.39,347.421,274.542z" style="fill: rgb(255, 255, 255);"></path>
                                            </g>
                                        </g>
                                    </g>
                                </svg>
