<svg height="511pt" viewBox="-41 1 511 511.999" width="511pt" xmlns="http://www.w3.org/2000/svg"><path d="m87.332031 309.253906h28.003907c2.15625 0 4.207031.808594 5.769531 2.269532l10.628906 9.953124c1.445313 1.355469 3.285156 2.027344 5.125 2.027344 2 0 3.996094-.796875 5.472656-2.371094 2.832031-3.023437 2.679688-7.773437-.34375-10.601562l-10.628906-9.953125c-4.351563-4.078125-10.042969-6.324219-16.023437-6.324219h-28.003907c-4.140625 0-7.5 3.355469-7.5 7.5 0 4.144532 3.359375 7.5 7.5 7.5zm0 0"/><path d="m98.460938 220.941406 10.625-9.953125c3.023437-2.832031 3.179687-7.578125.347656-10.601562-2.832032-3.023438-7.578125-3.179688-10.601563-.347657l-10.625 9.953126c-1.5625 1.464843-3.613281 2.273437-5.769531 2.273437h-28.003906c-4.140625 0-7.5 3.355469-7.5 7.5 0 4.140625 3.359375 7.5 7.5 7.5h28.003906c5.980469 0 11.671875-2.246094 16.023438-6.324219zm0 0"/><path d="m314.664062 294.253906c-5.980468 0-11.671874 2.246094-16.027343 6.324219l-10.625 9.953125c-3.023438 2.828125-3.179688 7.578125-.347657 10.601562 1.476563 1.574219 3.476563 2.371094 5.476563 2.371094 1.835937 0 3.679687-.671875 5.125-2.027344l10.625-9.953124c1.566406-1.460938 3.613281-2.269532 5.773437-2.269532h28c4.144532 0 7.5-3.355468 7.5-7.5 0-4.144531-3.355468-7.5-7.5-7.5zm0 0"/><path d="m383.0625 219.765625c0-4.144531-3.355469-7.5-7.5-7.5h-28c-2.160156 0-4.210938-.808594-5.773438-2.273437l-10.625-9.953126c-3.023437-2.832031-7.765624-2.675781-10.597656.347657-2.832031 3.023437-2.679687 7.769531.34375 10.601562l10.625 9.953125c4.355469 4.078125 10.046875 6.324219 16.027344 6.324219h28c4.144531 0 7.5-3.359375 7.5-7.5zm0 0"/><path d="m429.5 259.175781c0-15.042969-6.789062-29.214843-18.355469-38.730469 5.503907-8.214843 8.492188-17.949218 8.492188-27.863281 0-26.335937-20.496094-48.011719-46.492188-50.125-.003906-.261719-.007812-.542969-.007812-.84375 0-27.742187-19.515625-47.113281-47.457031-47.113281h-40.722657c-12.546875 0-23.964843 4.867188-32.457031 12.789062v-31.289062c0-7.359375-4.980469-13.570312-11.75-15.496094v-34.753906c0-14.199219-11.550781-25.75-25.75-25.75s-25.75 11.550781-25.75 25.75v34.753906c-6.773438 1.921875-11.75 8.132813-11.75 15.496094v31.289062c-8.496094-7.921874-19.914062-12.789062-32.460938-12.789062h-2.039062c-4.144531 0-7.5 3.355469-7.5 7.5s3.355469 7.5 7.5 7.5h2.039062c17.898438 0 32.460938 14.40625 32.460938 32.109375v.003906 29.964844h-20.503906c-2.15625 0-4.207032-.808594-5.769532-2.269531l-10.625-9.953125c-3.023437-2.835938-7.769531-2.675781-10.601562.34375-2.832031 3.023437-2.675781 7.773437.347656 10.601562l10.625 9.953125c4.351563 4.078125 10.042969 6.324219 16.023438 6.324219h20.503906v54.796875h-17.039062c-7.273438 0-14.46875 1.136719-21.378907 3.382812l-5.925781 1.921876c-3.9375 1.277343-6.097656 5.507812-4.816406 9.445312 1.027344 3.171875 3.96875 5.1875 7.128906 5.1875.769531 0 1.550781-.117188 2.316406-.367188l5.925782-1.921874c5.414062-1.757813 11.050781-2.648438 16.75-2.648438h17.039062v75.175781h-5.796875c-7.265625 0-14.179687 2.726563-19.472656 7.679688l-9.175781 8.59375c-3.019532 2.832031-3.175782 7.578125-.34375 10.605469 1.476562 1.574218 3.472656 2.371093 5.476562 2.371093 1.835938 0 3.679688-.671875 5.125-2.027343l9.175781-8.59375c2.496094-2.339844 5.769531-3.628907 9.214844-3.628907h5.796875v25.335938c0 16.882812-13.882812 30.613281-30.949219 30.613281h-21.949219c-11.472656 0-20.808593-9.222656-20.808593-20.558594 0-.125.007812-.261718.015625-.414062.082031-1.910156.28125-6.386719-2.984375-9.796875-1.40625-1.472657-3.941407-3.226563-8.011719-3.226563-19.671875 0-35.671875-15.835937-35.671875-35.296875 0-7.40625 2.300781-14.5 6.652344-20.515625 2.296875-3.179687 2.792969-7.265625 1.332031-10.910156l-.125-.308594c-1.859375-4.578125-6.476562-7.421875-11.46875-7.085937-.789062.054687-1.582031.082031-2.359375.082031-19.671875 0-35.671875-15.832031-35.671875-35.296875 0-11.578125 5.761719-22.433594 15.414062-29.039063 2.925782-2.003906 4.671876-5.292968 4.671876-8.792968 0-2.417969-.847657-4.796875-2.390626-6.699219-5.125-6.320313-7.832031-13.949219-7.832031-22.058594 0-19.464843 16-35.296875 35.671875-35.296875 10.824219 0 10.824219-10.984375 10.824219-15.675781 0-23.699219 17.484375-32.109375 32.460937-32.109375h6.429688c4.140625 0 7.5-3.359375 7.5-7.5 0-4.144531-3.359375-7.5-7.5-7.5h-6.429688c-27.945312 0-47.460937 19.371094-47.460937 47.109375 0 .304687 0 .585937-.003906.84375-25.992188 2.117187-46.492188 23.792969-46.492188 50.128906 0 9.914063 2.988281 19.648438 8.492188 27.863281-11.566407 9.515626-18.355469 23.6875-18.355469 38.730469 0 26.734375 21.125 48.667969 47.679688 50.207031-3.96875 7.292969-6.039063 15.414063-6.039063 23.824219 0 26.398438 20.597656 48.117188 46.679687 50.140625.75 18.960938 16.511719 34.152344 35.78125 34.152344h21.949219c11.914063 0 22.777344-4.523438 30.949219-11.929688v30.296876c0 5.566406 2.84375 10.480468 7.15625 13.382812-2.605469 10.652344-1.992188 30.183594 20.316406 57.972656 2.4375 3.035156 6.09375 4.777344 10.027344 4.777344s7.585938-1.742188 10.023438-4.777344c22.3125-27.785156 22.925781-47.3125 20.320312-57.96875 4.3125-2.898437 7.15625-7.8125 7.15625-13.378906v-30.304688c8.171875 7.40625 19.035156 11.929688 30.945312 11.929688h21.949219c19.269531 0 35.03125-15.191406 35.78125-34.148438 9.839844-.75 19.097657-4.285156 26.976563-10.332031 3.289062-2.519531 3.90625-7.226562 1.386718-10.515625-2.523437-3.285156-7.230468-3.90625-10.515624-1.382812-6.296876 4.828125-13.847657 7.382812-21.835938 7.382812-4.070312 0-6.605469 1.753906-8.015625 3.226563-3.261719 3.410156-3.066406 7.886719-2.980469 9.796875.003906.152344.011719.289062.015625.410156 0 11.339844-9.335937 20.5625-20.8125 20.5625h-21.949219c-17.0625 0-30.945312-13.734375-30.945312-30.613281v-25.335938h5.792969c3.445312 0 6.71875 1.289063 9.21875 3.628907l9.171875 8.59375c1.449218 1.355468 3.289062 2.027343 5.128906 2.027343 2 0 3.996094-.796875 5.476562-2.375 2.832032-3.023437 2.675782-7.769531-.347656-10.601562l-9.175781-8.59375c-5.289063-4.953125-12.203125-7.683594-19.472656-7.683594h-5.792969v-75.171875h17.035156c5.703125 0 11.335938.890625 16.753906 2.648438l5.921876 1.921874c.769531.25 1.550781.367188 2.316406.367188 3.164062 0 6.105468-2.015625 7.132812-5.1875 1.277344-3.9375-.878906-8.171875-4.820312-9.449219l-5.921875-1.921875c-6.910157-2.242187-14.105469-3.382812-21.382813-3.382812h-17.035156v-17.371094c0-4.144531-3.359375-7.5-7.5-7.5-4.144531 0-7.5 3.355469-7.5 7.5v30.5h-45v-178.5c0-.621094.523438-1.121094 1.167969-1.121094h42.660156c.644531 0 1.171875.5 1.171875 1.121094v115.917969c0 4.140625 3.355469 7.5 7.5 7.5 4.140625 0 7.5-3.359375 7.5-7.5v-5.339844h20.5c5.984375 0 11.675781-2.242187 16.027344-6.320313l10.625-9.953124c3.023437-2.832032 3.179687-7.578126.347656-10.601563s-7.578125-3.179687-10.601562-.347656l-10.625 9.953125c-1.5625 1.464844-3.613282 2.269531-5.773438 2.269531h-20.5v-29.945313c0-.007812 0-.015624 0-.023437 0-17.703125 14.5625-32.109375 32.457031-32.109375h40.722657c14.972656 0 32.457031 8.410156 32.457031 32.113281 0 4.6875 0 15.671875 10.828125 15.671875 19.671875 0 35.671875 15.835938 35.671875 35.296875 0 8.109375-2.707031 15.738281-7.835938 22.0625-1.539062 1.898438-2.386719 4.277344-2.386719 6.695313 0 3.5 1.746094 6.789062 4.671876 8.792968 9.652343 6.605469 15.414062 17.460938 15.414062 29.042969 0 19.460938-16.003906 35.296875-35.671875 35.296875-.777344 0-1.570313-.027344-2.363281-.082031-5.007813-.34375-9.605469 2.503906-11.449219 7.039063l-.136719.335937c-1.46875 3.660156-.972656 7.746094 1.332032 10.933594 4.347656 6.011719 6.648437 13.101562 6.648437 20.507812 0 1.886719-.148437 3.773438-.445313 5.617188-.660156 4.089843 2.121094 7.941406 6.210938 8.597656.402344.066406.804688.097656 1.199219.097656 3.617187 0 6.804687-2.621093 7.398437-6.308593.421875-2.628907.636719-5.320313.636719-8.003907 0-8.410156-2.070313-16.535156-6.039063-23.820312 26.550782-1.542969 47.679688-23.476563 47.679688-50.210938zm-214.5-244.175781c5.925781 0 10.75 4.820312 10.75 10.75v34.128906h-21.5v-34.128906c0-5.929688 4.820312-10.75 10.75-10.75zm22.5 420.878906c0 .617188-.523438 1.121094-1.167969 1.121094h-42.652343c-.648438 0-1.179688-.507812-1.179688-1.132812v-36.367188h45zm-22.5 59.832032c-18.210938-23.566407-17.277344-37.898438-15.589844-43.710938h8.089844v12.5c0 4.144531 3.355469 7.5 7.5 7.5 4.140625 0 7.5-3.355469 7.5-7.5v-12.5h8.089844c1.6875 5.808594 2.625 20.140625-15.589844 43.710938zm22.5-226.210938v115h-45v-115zm0 0"/></svg>