<svg height="512pt" viewBox="0 0 512 512.001" width="512pt" xmlns="http://www.w3.org/2000/svg"><path d="m192.125 165.484375h26.480469c2.03125 14.925781 7.601562 25.929687 16.609375 32.757813 7.742187 5.867187 16.570312 7.53125 24.089844 7.53125 4.648437 0 8.796874-.636719 11.875-1.304688 3.898437-.851562 6.671874-4.359375 6.597656-8.347656-.074219-3.988282-2.976563-7.390625-6.902344-8.097656-3.050781-.542969-5.113281-1.835938-6.492188-4.058594-2.945312-4.746094-2.546874-12.785156-1.644531-18.480469h34.613281c22.960938 0 41.636719-18.679687 41.636719-41.636719v-28.015625c0-4.140625-3.355469-7.5-7.5-7.5-4.140625 0-7.5 3.359375-7.5 7.5v28.015625c0 14.6875-11.949219 26.636719-26.636719 26.636719h-40.660156c-3.324218 0-6.253906 2.1875-7.195312 5.378906-.625 2.125-5.628906 20.152344.804687 33.566407-2.09375-.699219-4.136719-1.710938-6.019531-3.140626-6.726562-5.097656-10.554688-14.769531-11.382812-28.75-.234376-3.960937-3.515626-7.054687-7.484376-7.054687h-33.289062c-14.6875 0-26.636719-11.949219-26.636719-26.636719v-82.210937c0-14.6875 11.949219-26.636719 26.636719-26.636719h105.226562c14.691407 0 26.640626 11.949219 26.640626 26.636719v22.195312c0 4.144531 3.355468 7.5 7.5 7.5 4.140624 0 7.5-3.355469 7.5-7.5v-22.195312c-.003907-22.957031-18.679688-41.636719-41.640626-41.636719h-105.226562c-22.957031 0-41.636719 18.679688-41.636719 41.636719v82.210937c0 22.960938 18.679688 41.636719 41.636719 41.636719zm0 0"/><path d="m328.351562 346.515625h-26.476562c-2.03125-14.925781-7.605469-25.929687-16.613281-32.757813-12.527344-9.5-27.90625-7.980468-35.960938-6.226562-3.898437.847656-6.675781 4.355469-6.601562 8.34375s2.976562 7.394531 6.90625 8.097656c3.046875.546875 5.109375 1.839844 6.488281 4.0625 2.945312 4.746094 2.546875 12.785156 1.648438 18.480469h-34.617188c-22.957031 0-41.636719 18.679687-41.636719 41.636719v82.210937c0 22.960938 18.679688 41.636719 41.636719 41.636719h105.226562c22.960938 0 41.636719-18.675781 41.636719-41.636719v-82.210937c0-22.960938-18.675781-41.636719-41.636719-41.636719zm26.636719 123.847656c0 14.6875-11.949219 26.636719-26.636719 26.636719h-105.226562c-14.6875 0-26.636719-11.949219-26.636719-26.636719v-82.210937c0-14.6875 11.949219-26.636719 26.636719-26.636719h40.664062c3.324219 0 6.253907-2.1875 7.191407-5.378906.628906-2.125 5.632812-20.152344-.800781-33.566407 2.09375.699219 4.136718 1.710938 6.019531 3.140626 6.722656 5.09375 10.550781 14.769531 11.378906 28.75.234375 3.960937 3.519531 7.054687 7.488281 7.054687h33.285156c14.6875 0 26.636719 11.949219 26.636719 26.636719zm0 0"/><path d="m185 232.710938c0-11.855469-9.644531-21.5-21.5-21.5h-31.5v-14.5c0-11.855469-9.644531-21.5-21.5-21.5h-36c-11.855469 0-21.5 9.644531-21.5 21.5v14.5h-31.5c-11.855469 0-21.5 9.644531-21.5 21.5v108c0 11.851562 9.644531 21.5 21.5 21.5h10.5c4.144531 0 7.5-3.359376 7.5-7.5 0-4.144532-3.355469-7.5-7.5-7.5h-10.5c-3.582031 0-6.5-2.917969-6.5-6.5v-61.511719c2.050781.652343 4.234375 1.011719 6.5 1.011719h14.5v7.421874c0 4.144532 3.359375 7.5 7.5 7.5 4.144531 0 7.5-3.355468 7.5-7.5v-7.421874h83v7.421874c0 4.144532 3.359375 7.5 7.5 7.5 4.144531 0 7.5-3.355468 7.5-7.5v-7.421874h14.5c2.265625 0 4.449219-.359376 6.5-1.011719v61.511719c0 3.582031-2.914062 6.5-6.5 6.5h-99.5c-4.140625 0-7.5 3.355468-7.5 7.5 0 4.140624 3.359375 7.5 7.5 7.5h99.5c11.855469 0 21.5-9.648438 21.5-21.5zm-117-36c0-3.585938 2.917969-6.5 6.5-6.5h36c3.585938 0 6.5 2.914062 6.5 6.5v14.5h-49zm95.5 68.5h-14.5v-3.578126c0-4.144531-3.355469-7.5-7.5-7.5-4.140625 0-7.5 3.355469-7.5 7.5v3.578126h-83v-3.578126c0-4.144531-3.355469-7.5-7.5-7.5-4.140625 0-7.5 3.355469-7.5 7.5v3.578126h-14.5c-3.582031 0-6.5-2.917969-6.5-6.5v-26c0-3.585938 2.917969-6.5 6.5-6.5h142c3.585938 0 6.5 2.914062 6.5 6.5v26c0 3.582031-2.914062 6.5-6.5 6.5zm0 0"/><path d="m100 247.132812c0 4.140626-3.355469 7.5-7.5 7.5-4.140625 0-7.5-3.359374-7.5-7.5 0-4.140624 3.359375-7.5 7.5-7.5 4.144531 0 7.5 3.359376 7.5 7.5zm0 0"/><path d="m289.238281 46.230469h-88c-4.144531 0-7.5 3.359375-7.5 7.5 0 4.144531 3.355469 7.5 7.5 7.5h88c4.144531 0 7.5-3.355469 7.5-7.5 0-4.140625-3.355469-7.5-7.5-7.5zm0 0"/><path d="m296.738281 83.730469c0-4.140625-3.355469-7.5-7.5-7.5h-88c-4.144531 0-7.5 3.359375-7.5 7.5 0 4.144531 3.355469 7.5 7.5 7.5h88c4.144531 0 7.5-3.355469 7.5-7.5zm0 0"/><path d="m201.238281 104.253906c-4.144531 0-7.5 3.355469-7.5 7.5 0 4.144532 3.355469 7.5 7.5 7.5h44c4.144531 0 7.5-3.355468 7.5-7.5 0-4.144531-3.355469-7.5-7.5-7.5zm0 0"/><path d="m260.277344 406.066406c0 4.140625-3.359375 7.5-7.5 7.5-4.144532 0-7.5-3.359375-7.5-7.5s3.355468-7.5 7.5-7.5c4.140625 0 7.5 3.359375 7.5 7.5zm0 0"/><path d="m305 450.792969c0 4.140625-3.355469 7.5-7.5 7.5-4.140625 0-7.5-3.359375-7.5-7.5 0-4.144531 3.359375-7.5 7.5-7.5 4.144531 0 7.5 3.355469 7.5 7.5zm0 0"/><path d="m292.546875 400.414062-45.421875 45.421876c-2.929688 2.929687-2.929688 7.679687 0 10.605468 1.464844 1.464844 3.382812 2.199219 5.300781 2.199219 1.921875 0 3.839844-.734375 5.304688-2.199219l45.421875-45.421875c2.929687-2.929687 2.929687-7.675781 0-10.605469-2.929688-2.929687-7.675782-2.929687-10.605469 0zm0 0"/><path d="m504.511719 264.5625c-1.757813-3.75-6.222657-5.367188-9.976563-3.605469-3.75 1.761719-5.363281 6.226563-3.601562 9.976563 4.023437 8.585937 6.066406 17.785156 6.066406 27.351562v.105469c0 9.988281-8.125 18.109375-18.109375 18.109375h-92.78125c-9.984375 0-18.109375-8.121094-18.109375-18.109375v-.105469c0-35.5625 28.9375-64.496094 64.5-64.496094 14.890625 0 29.414062 5.191407 40.898438 14.617188 3.199218 2.628906 7.925781 2.164062 10.554687-1.039062 2.628906-3.199219 2.164063-7.925782-1.039063-10.554688-6.152343-5.050781-13.011718-9.113281-20.308593-12.09375 14.773437-9.792969 24.539062-26.5625 24.539062-45.574219 0-30.128906-24.511719-54.644531-54.640625-54.644531-30.132812 0-54.644531 24.515625-54.644531 54.644531 0 19.015625 9.769531 35.785157 24.546875 45.578125-28.957031 11.886719-49.40625 40.375-49.40625 73.5625v.105469c0 18.257813 14.851562 33.109375 33.109375 33.109375h92.78125c18.257813 0 33.109375-14.855469 33.109375-33.109375v-.105469c0-11.785156-2.519531-23.132812-7.488281-33.722656zm-111.652344-85.417969c0-21.859375 17.78125-39.644531 39.640625-39.644531s39.644531 17.78125 39.644531 39.644531c0 21.859375-17.785156 39.640625-39.644531 39.640625s-39.640625-17.78125-39.640625-39.640625zm0 0"/><path d="m460.429688 189.722656c-1.996094-3.625-6.554688-4.949218-10.1875-2.953125-.078126.046875-8.308594 4.429688-17.742188 4.429688-9.355469 0-17.539062-4.316407-17.761719-4.4375-3.625-1.980469-8.171875-.65625-10.167969 2.964843-1.996093 3.628907-.675781 8.1875 2.953126 10.1875.46875.257813 11.574218 6.285157 24.976562 6.285157s24.511719-6.027344 24.976562-6.285157c3.628907-2 4.949219-6.5625 2.953126-10.191406zm0 0"/><path d="m426.65625 166.261719c0 3.550781-2.878906 6.429687-6.429688 6.429687-3.546874 0-6.425781-2.878906-6.425781-6.429687s2.878907-6.429688 6.425781-6.429688c3.550782 0 6.429688 2.878907 6.429688 6.429688zm0 0"/><path d="m451.203125 166.261719c0 3.550781-2.878906 6.429687-6.429687 6.429687-3.550782 0-6.429688-2.878906-6.429688-6.429687s2.878906-6.429688 6.429688-6.429688c3.550781 0 6.429687 2.878907 6.429687 6.429688zm0 0"/></svg>