<svg height="512pt" viewBox="-21 0 512 512" width="512pt" xmlns="http://www.w3.org/2000/svg"><path d="m447.019531 76.058594h-47.273437l-.824219-4.785156 15.769531-15.242188c4.0625-3.921875 5.507813-9.691406 3.773438-15.054688-1.742188-5.386718-6.316406-9.238281-11.941406-10.050781l-21.851563-3.144531-9.761719-19.605469c-2.507812-5.042969-7.578125-8.175781-13.226562-8.175781-5.652344 0-10.722656 3.132812-13.230469 8.171875l-9.761719 19.605469-21.847656 3.148437c-5.625.8125-10.203125 4.660157-11.941406 10.050781-1.734375 5.363282-.289063 11.128907 3.769531 15.054688l15.773437 15.242188-.828124 4.785156h-37.367188v-8.949219c0-15.0625-12.261719-27.320313-27.328125-27.320313-7.285156 0-14.140625 2.839844-19.316406 7.996094-.761719.765625-1.46875 1.570313-2.128907 2.40625-4.828124-4.292968-11.179687-6.910156-18.136718-6.910156-7.289063 0-14.148438 2.835938-19.332032 8.003906-5.148437 5.164063-7.988281 12.023438-7.988281 19.3125v5.460938h-21.019531c-4.140625 0-7.5 3.355468-7.5 7.5 0 4.144531 3.359375 7.5 7.5 7.5h21.019531v45h-87.050781v-45h33.78125c4.140625 0 7.5-3.355469 7.5-7.5 0-4.144532-3.359375-7.5-7.5-7.5h-66.359375c-4.835937 0-9.023437 2.792968-11.0625 6.847656-10.925781-2.195312-29.953125-.722656-56.550781 20.628906-3.035156 2.4375-4.777344 6.09375-4.777344 10.027344s1.742188 7.585938 4.777344 10.023438c21.125 16.964843 37.476562 21.386718 48.785156 21.386718 2.929688 0 5.519531-.300781 7.765625-.75 2.042969 4.046875 6.230469 6.839844 11.066406 6.839844l119.625-.003906.007813 68.820312c0 9.339844-6.398438 21.046875-13.691406 25.054688-7.878907 4.316406-11.710938 13.808594-9.121094 22.570312.640625 2.160156 1.347656 4.765625 2.171875 7.78125 3.324219 12.210938 8.015625 29.394532 15.417969 44.859375-8.332032 1.035157-14.804688 8.148438-14.804688 16.753907v65.199218c0 8.050782 5.664062 14.796875 13.214844 16.484375v29.417969c0 4.144531 3.359375 7.5 7.5 7.5s7.5-3.355469 7.5-7.5v-29h47.078125v40.5c0 4.144531 3.355469 7.5 7.5 7.5 4.140625 0 7.5-3.355469 7.5-7.5v-40.5h72.921875v78h-135v-17c0-4.144531-3.355469-7.5-7.5-7.5-4.140625 0-7.5 3.355469-7.5 7.5v24.5c0 4.144531 3.359375 7.5 7.5 7.5h150c4.144531 0 7.5-3.355469 7.5-7.5v-85.507812c9.265625-.0625 16.785156-7.613282 16.785156-16.894532v-65.195312c0-7.371094-4.746094-13.632813-11.339844-15.941406 2.539063-6.523438 3.859375-13.488282 3.859375-20.601563v-44.359375c0-4.144531-3.359375-7.5-7.5-7.5-4.144531 0-7.5 3.355469-7.5 7.5v44.359375c0 6.90625-1.703125 13.617187-4.914062 19.640625h-135.988281c-8.710938-15.457031-14.105469-35.238281-17.757813-48.65625-.84375-3.097656-1.574219-5.773438-2.257813-8.089844-.605468-2.046875.210938-4.21875 1.949219-5.171875 12.042969-6.613281 21.480469-23.394531 21.480469-38.203125l-.011719-149.277344c0-3.292968 1.28125-6.390624 3.597657-8.710937 2.332031-2.328125 5.433593-3.609375 8.722656-3.609375 6.792968 0 12.320312 5.527344 12.320312 12.320312v106.667969c0 4.144531 3.359375 7.5 7.5 7.5 4.144532 0 7.5-3.355469 7.5-7.5v-86.210937h74.363282l-.296876 1.722656c-.957031 5.53125 1.269532 11.03125 5.8125 14.351562 4.582032 3.34375 10.554688 3.792969 15.585938 1.171876l19.558594-10.195313 16.605468 8.65625v29.296875h-55.378906c-4.664062-8.824219-13.929687-14.621094-24.289062-14.621094-12.308594 0-23.167969 8.285156-26.402344 20.128906-.644531 2.335938-.96875 4.773438-.96875 7.242188v36.117188c0 4.144531 3.355469 7.5 7.5 7.5s7.5-3.355469 7.5-7.5v-36.117188c0-1.125.144531-2.222656.4375-3.273438 1.460938-5.355468 6.367188-9.097656 12.023438-9.097656 5.5625 0 10.472656 3.742188 11.9375 9.109375.285156 1.039063.429687 2.136719.429687 3.261719v40.996094c0 4.140625 3.359375 7.5 7.5 7.5 4.144531 0 7.5-3.359375 7.5-7.5v-17.660156c0-2.457032.960937-4.769532 2.707031-6.515626 1.734375-1.738281 4.050782-2.691406 6.515625-2.691406 5.082031 0 9.21875 4.128906 9.21875 9.207032v51.601562c0 4.144531 3.359375 7.5 7.5 7.5 4.144531 0 7.5-3.355469 7.5-7.5v-51.601562c0-9.039063-4.984375-16.929688-12.347656-21.089844h99.847656c12.121094 0 21.980469-9.867188 21.980469-22v-31c0-12.128906-9.859375-22-21.980469-22zm-372.019531 60v-44.996094h14.96875v44.996094zm-58.710938-22.496094c23.570313-18.210938 37.902344-17.277344 43.710938-15.589844v8.089844h-12.5c-4.140625 0-7.5 3.359375-7.5 7.5 0 4.144531 3.359375 7.5 7.5 7.5h12.5v8.089844c-5.808594 1.6875-20.140625 2.625-43.710938-15.589844zm335.710938 288.535156c0 1.050782-.851562 1.902344-1.902344 1.902344h-161.195312c-1.050782 0-1.902344-.851562-1.902344-1.902344v-65.195312c0-1.050782.851562-1.902344 1.902344-1.902344h161.195312c1.050782 0 1.902344.855469 1.902344 1.902344zm-105.398438-334.988281c0-3.289063 1.28125-6.386719 3.605469-8.710937 2.332031-2.328126 5.429688-3.609376 8.714844-3.609376 6.796875 0 12.328125 5.527344 12.328125 12.320313v8.949219h-24.589844s-.058594-8.632813-.058594-8.949219zm115.082032 15.976563c-2.355469 0-4.703125.558593-6.847656 1.675781l-19.234376 10.023437 3.65625-21.136718c.828126-4.785157-.769531-9.660157-4.269531-13.046876l-15.429687-14.910156 21.386718-3.082031c4.800782-.691406 8.957032-3.6875 11.113282-8.019531l9.625-19.332032 9.621094 19.332032c2.15625 4.332031 6.3125 7.328125 11.117187 8.019531l21.382813 3.082031-15.429688 14.914063c-3.5 3.382812-5.09375 8.257812-4.269531 13.042969l1.964843 11.355468c.003907.027344.007813.054688.015626.085938l1.679687 9.699218-19.234375-10.027343c-2.144531-1.117188-4.496094-1.675781-6.847656-1.675781zm31.605468 52.972656v-27.023438c1.238282-.464844 2.425782-1.09375 3.53125-1.902344 4.546876-3.320312 6.777344-8.820312 5.820313-14.351562l-.296875-1.722656h5.914062v45zm60.710938-7c0 3.859375-3.132812 7-6.980469 7h-23.757812v-45h23.757812c3.847657 0 6.980469 3.140625 6.980469 7zm0 0"/><path d="m306.042969 346.726562c-12.40625 0-22.5 10.09375-22.5 22.5s10.09375 22.5 22.5 22.5 22.5-10.09375 22.5-22.5-10.09375-22.5-22.5-22.5zm0 30c-4.136719 0-7.5-3.363281-7.5-7.5 0-4.132812 3.363281-7.5 7.5-7.5s7.5 3.367188 7.5 7.5c0 4.136719-3.363281 7.5-7.5 7.5zm0 0"/><path d="m169.28125 207.476562c-1.742188-5.386718-6.316406-9.238281-11.941406-10.050781l-21.851563-3.144531-9.757812-19.605469c-2.511719-5.042969-7.582031-8.175781-13.230469-8.175781s-10.71875 3.132812-13.230469 8.175781l-9.757812 19.605469-21.851563 3.144531c-5.625.8125-10.199218 4.664063-11.941406 10.050781-1.734375 5.363282-.289062 11.132813 3.769531 15.054688l15.773438 15.242188-3.71875 21.507812c-.957031 5.53125 1.269531 11.03125 5.816406 14.351562 2.601563 1.898438 5.648437 2.863282 8.71875 2.863282 2.335937 0 4.6875-.558594 6.863281-1.691406l19.558594-10.195313 19.558594 10.191406c5.03125 2.625 11 2.175781 15.582031-1.167969 4.542969-3.320312 6.773437-8.820312 5.816406-14.355468l-3.71875-21.503906 15.769531-15.242188c4.0625-3.925781 5.507813-9.691406 3.773438-15.054688zm-30.089844 19.628907c-3.5 3.382812-5.09375 8.257812-4.265625 13.046875l3.65625 21.136718-19.234375-10.023437c-2.144531-1.121094-4.496094-1.679687-6.847656-1.679687s-4.703125.558593-6.847656 1.679687l-19.234375 10.023437 3.65625-21.136718c.828125-4.789063-.769531-9.664063-4.269531-13.050782l-15.429688-14.910156 21.386719-3.082031c4.800781-.691406 8.957031-3.6875 11.113281-8.019531l9.625-19.332032 9.621094 19.332032c2.15625 4.328125 6.3125 7.328125 11.117187 8.019531l21.382813 3.082031zm0 0"/></svg>